<svg width="32" height="32" fill="none" xmlns="http://www.w3.org/2000/svg"><path d="M16.06 28.332c6.862 0 12.423-5.488 12.423-12.259 0-6.77-5.561-12.258-12.422-12.258-6.861 0-12.423 5.488-12.423 12.258 0 6.77 5.562 12.26 12.423 12.26Z" fill="url(#a)"/><path d="M16.06 31.49C7.448 31.49.439 24.573.439 16.073S7.447.657 16.061.657s15.622 6.915 15.622 15.415S24.675 31.49 16.06 31.49Zm0-30.5C7.633.99.776 7.756.776 16.073c0 8.318 6.857 15.084 15.286 15.084 8.428 0 15.285-6.766 15.285-15.084C31.346 7.756 24.49.99 16.061.99Z" fill="#223BAA"/><path d="M23.358 21.419a.174.174 0 0 1-.067.02c-.453.276-1.04.513-1.55.257-.596-.323-.711-1.064-.73-1.671v-6.93c0-.304-.008-.618-.068-.921-.212-.608-.558-1.177-1.077-1.576-1.078-.902-2.569-1.044-3.935-.987a6.764 6.764 0 0 0-3.512.93c-.77.531-1.472 1.243-1.712 2.174-.028.342 0 .702.115 1.034.097.21.232.399.414.551.664.617 1.953.475 2.328-.39a.754.754 0 0 1 .068-.17c.04-.285.057-.589-.087-.854-.135-.323-.414-.56-.568-.874-.211-.38.116-.74.424-.94.683-.446 1.52-.636 2.338-.607.99-.048 2.02.37 2.626 1.167.366.437.49 1.007.49 1.557-.006.627.008 1.244-.006 1.861-1.097.133-2.194.295-3.271.56-1.434.37-2.848.902-4.06 1.757-.53.446-1.01.959-1.29 1.595a3.045 3.045 0 0 0-.144 1.632c.183.95.943 1.738 1.857 2.06 1.155.428 2.425.418 3.618.19 1.26-.256 2.26-1.12 3.126-2.012a.293.293 0 0 1 .24-.114c.309.959.934 2.003 2.021 2.202.953.247 1.953-.114 2.684-.74a1.43 1.43 0 0 0 .126-.105c-.107-.227-.26-.436-.395-.655l-.003-.001Zm-4.503-4.88c0 .541 0 1.083-.02 1.633 0 0-.018.108-.021.208-.01.49-.386 1.225-.886 1.747-.472.56-1.078.969-1.722 1.31-.885.437-1.963.608-2.896.2a1.903 1.903 0 0 1-.455-.382c-.084-.095-.15-.161-.209-.263-.366-.617-.49-1.425-.125-2.06.433-.731 1.212-1.168 1.924-1.595.346-.18.626-.353.996-.498l.099-.042.084-.03c.339-.162.631-.212.88-.312a12.38 12.38 0 0 1 2.347-.465v.55h.004Z" fill="#172760"/><path d="M23.358 20.887a.176.176 0 0 1-.067.02c-.453.276-1.04.513-1.55.257-.596-.323-.711-1.063-.73-1.67v-6.931c0-.304-.008-.617-.068-.921-.212-.607-.558-1.177-1.077-1.576-1.078-.902-2.569-1.044-3.935-.987a6.764 6.764 0 0 0-3.512.93c-.77.532-1.472 1.244-1.712 2.174-.028.342 0 .702.115 1.035.097.208.232.398.414.55.664.618 1.953.475 2.328-.389a.752.752 0 0 1 .068-.17c.04-.286.057-.59-.087-.855-.135-.323-.414-.56-.568-.873-.211-.38.116-.74.424-.94.683-.446 1.52-.636 2.338-.608.99-.047 2.02.37 2.626 1.168.366.436.49 1.006.49 1.557-.006.626.008 1.243-.006 1.86-1.097.133-2.194.295-3.271.56-1.434.37-2.848.902-4.06 1.757-.53.446-1.01.959-1.29 1.595a3.045 3.045 0 0 0-.144 1.633c.183.949.943 1.737 1.857 2.06 1.155.427 2.425.417 3.618.19 1.26-.257 2.26-1.12 3.126-2.013a.293.293 0 0 1 .24-.114c.309.959.934 2.003 2.021 2.203.953.247 1.953-.114 2.684-.74.028-.021.097-.077.126-.105-.107-.228-.26-.437-.395-.655l-.003-.002Zm-4.503-4.88c0 .541 0 1.083-.02 1.633 0 0-.018.108-.021.209-.01.49-.386 1.224-.886 1.747-.472.56-1.078.968-1.722 1.31-.885.436-1.963.607-2.896.2a1.903 1.903 0 0 1-.455-.383c-.084-.095-.15-.161-.209-.263-.366-.617-.49-1.424-.125-2.06.433-.731 1.212-1.168 1.924-1.595.346-.18.626-.353.996-.498l.099-.041.084-.031c.339-.162.631-.212.88-.311a12.38 12.38 0 0 1 2.347-.465v.55l.004-.002Z" fill="#FDFEFD"/><defs><linearGradient id="a" x1="16.061" y1="3.815" x2="16.061" y2="28.332" gradientUnits="userSpaceOnUse"><stop stop-color="#4779F1"/><stop offset="1" stop-color="#223BAA"/></linearGradient></defs></svg>