<svg width="32" height="32" fill="none" xmlns="http://www.w3.org/2000/svg"><g clip-path="url(#a)"><g clip-path="url(#b)"><path d="M13.36 31.84C5.76 30.48 0 23.92 0 16 0 7.2 7.2 0 16 0s16 7.2 16 16c0 7.92-5.76 14.48-13.36 15.84l-.88-.72h-3.52l-.88.72Z" fill="url(#c)"/><path d="m22.24 20.48.72-4.48h-4.24v-3.12c0-1.28.48-2.24 2.4-2.24h2.08V6.56c-1.12-.16-2.4-.32-3.52-.32-3.68 0-6.24 2.24-6.24 6.24V16h-4v4.48h4v11.28c.88.16 1.76.24 2.64.24.88 0 1.76-.08 2.64-.24V20.48h3.52Z" fill="#fff"/></g></g><defs><clipPath id="a"><path fill="#fff" d="M0 0h32v32H0z"/></clipPath><clipPath id="b"><path fill="#fff" d="M0 0h32v32H0z"/></clipPath><linearGradient id="c" x1="16.001" y1="30.887" x2="16.001" y2="-.006" gradientUnits="userSpaceOnUse"><stop stop-color="#0062E0"/><stop offset="1" stop-color="#19AFFF"/></linearGradient></defs></svg>