<svg width="32" height="32" fill="none" xmlns="http://www.w3.org/2000/svg"><g clip-path="url(#a)"><path fill="#122529" d="M0 0h32v32H0z"/><path d="M.46 13.776c1.93.787 3.91 1.178 5.874 1.178 2.618 0 5.205-.696 7.596-2.076 4.194-2.42 6.866-6.401 7.525-11.212.041-.333-.09-.59-.38-.742l-.038-.017a15.86 15.86 0 0 0-7.174-.796l-.041.007c-.372.072-.594.342-.594.712-.083 2.243-1.268 4.233-3.17 5.324-1.896 1.1-4.211 1.133-6.187.09-.355-.202-.728-.128-.976.199a16.034 16.034 0 0 0-2.89 6.594c-.039.329.125.597.456.74Zm20.994 16.561c.058.46-.19.664-.409.754a15.978 15.978 0 0 1-7.203.795c-.4-.084-.614-.345-.614-.72-.084-2.25-1.268-4.24-3.167-5.312-1.883-1.11-4.198-1.142-6.199-.087-.333.19-.681.128-.945-.179A16.035 16.035 0 0 1 .008 18.98c-.033-.35.132-.612.448-.748 4.52-1.842 9.313-1.523 13.504.897 4.173 2.408 6.835 6.389 7.494 11.208ZM32 22.72v8.386c0 .228-.086.416-.241.532a.623.623 0 0 1-.377.117.928.928 0 0 1-.266-.04c-8.075-2.672-11.75-10.017-11.75-15.71 0-4.817 2.122-9.117 5.976-12.107.28-.234.523-.2.698-.104h.027l.08.069a16.12 16.12 0 0 1 4.302 5.87c.142.382.04.677-.293.868-1.857 1.157-3.016 3.288-3.016 5.556 0 .94.313 4.137 4.35 5.813l.003.001c.419.18.507.506.507.749Z" fill="#89DFD7"/></g><defs><clipPath id="a"><path fill="#fff" d="M0 0h32v32H0z"/></clipPath></defs></svg>