<svg width="32" height="32" fill="none" xmlns="http://www.w3.org/2000/svg"><path d="M31.17 6.593a12.45 12.45 0 0 1-3.575.98 6.243 6.243 0 0 0 2.737-3.444 12.466 12.466 0 0 1-3.953 1.51 6.217 6.217 0 0 0-4.543-1.965 6.225 6.225 0 0 0-6.064 7.643 17.672 17.672 0 0 1-12.83-6.503 6.197 6.197 0 0 0-.843 3.129 6.222 6.222 0 0 0 2.77 5.181 6.2 6.2 0 0 1-2.82-.779v.079a6.229 6.229 0 0 0 4.993 6.103 6.233 6.233 0 0 1-2.811.107 6.231 6.231 0 0 0 5.814 4.323 12.49 12.49 0 0 1-7.73 2.665c-.503 0-.998-.03-1.485-.087a17.618 17.618 0 0 0 9.542 2.796c11.45 0 17.71-9.485 17.71-17.71 0-.27-.006-.539-.018-.806a12.653 12.653 0 0 0 3.106-3.222Z" fill="#55ACEE"/></svg>