<svg width="32" height="32" fill="none" xmlns="http://www.w3.org/2000/svg"><mask id="a" style="mask-type:luminance" maskUnits="userSpaceOnUse" x="0" y="7" width="32" height="18"><path d="M31.484 7.742H.517v16.516h30.967V7.742Z" fill="#fff"/></mask><g mask="url(#a)" fill-rule="evenodd" clip-rule="evenodd"><path d="M.465 7.793c.742-.033 1.464.001 2.168.103A10.383 10.383 0 0 0 .568 8H.465v-.207Z" fill="#4B89B8"/><path d="M8.722 7.897A10.385 10.385 0 0 0 6.658 8c-.056-.006-.09-.04-.103-.103a5.804 5.804 0 0 1 2.167 0Z" fill="#4786B7"/><path d="M14.504 7.896c2.666-.103 5.35-.137 8.051-.103.033.4-.001.778-.103 1.136V7.896h-7.948Z" fill="#4C8AB9"/><path d="M2.633 7.897c.99 3.262 1.97 6.531 2.942 9.806a502.617 502.617 0 0 0 1.91-6.71L6.658 8a10.384 10.384 0 0 1 2.064-.103l2.89 9.806 2.89-9.806h7.95v1.032l-2.891 4.955c.44.255.887.513 1.342.774 1.707 1.684 2.24 3.697 1.6 6.039-.5 1.893-1.687 3.063-3.561 3.51H17.6c-1.585-.52-2.618-1.586-3.097-3.2l.103-.207a18.97 18.97 0 0 1 1.445-.62 3.207 3.207 0 0 0 1.755 1.91c.93.232 1.635-.06 2.116-.877.71-1.432.744-2.877.103-4.336-.404-.61-.971-.97-1.703-1.084a11.67 11.67 0 0 0-1.548-.051c-.017-.38 0-.759.051-1.136.873-1.59 1.785-3.156 2.736-4.696a19.59 19.59 0 0 0-3.458.051 600.783 600.783 0 0 0-4.284 14.245h-.207a336.453 336.453 0 0 0-3.045-10.013L5.523 24.206h-.206C3.734 18.808 2.152 13.406.568 8a10.384 10.384 0 0 1 2.065-.103Z" fill="#055B9D"/><path d="M30.813 7.793c.119.03.188.116.207.258.17.663.221 1.334.155 2.013l-1.136 2.065a3.891 3.891 0 0 0-2.013-1.91c-1.007-.176-1.816.15-2.426.98-1.102 1.727-1.55 3.62-1.341 5.678-.958-2.668-.717-5.214.722-7.639.98-1.376 2.167-1.6 3.561-.67.458.451.854.95 1.188 1.496.445-.72.807-1.477 1.083-2.271Zm-7.845 11.562a8.426 8.426 0 0 0 1.755 2.322c2.058 1.375 3.899 1.117 5.522-.774l.826-1.239a3.66 3.66 0 0 1 .206 1.755 5.658 5.658 0 0 1-3.045 2.632c-1.516.232-2.737-.267-3.664-1.496a9.287 9.287 0 0 1-1.6-3.2Z" fill="#261F10"/></g></svg>